<svg width="26" height="19" viewBox="0 0 26 19" fill="none" xmlns="http://www.w3.org/2000/svg">
<path d="M7.42857 0C3.84849 0 0.928571 2.91992 0.928571 6.5C0.928571 6.89174 0.997489 7.25446 1.06641 7.61719C0.435268 8.54576 0 9.63393 0 10.8527C0 14.0519 2.59347 16.6526 5.78181 16.6998C6.94978 17.8133 8.47684 18.5714 10.2143 18.5714C11.9989 18.5714 13.555 17.7734 14.7302 16.6091C14.7846 16.6127 14.7919 16.6164 14.8571 16.6164C16.3407 16.6164 17.5485 15.8075 18.3756 14.7084C18.7455 14.7737 19.1083 14.8571 19.5 14.8571C23.0801 14.8571 26 11.9372 26 8.35714C26 4.77706 23.0801 1.85714 19.5 1.85714C18.8544 1.85714 18.2595 2.024 17.6719 2.1981C16.6091 1.43276 15.3359 0.928571 13.9286 0.928571C13.0508 0.928571 12.26 1.21875 11.4911 1.53795C10.3739 0.620257 8.98828 0 7.42857 0ZM7.42857 1.85714C8.69448 1.85714 9.82617 2.3577 10.6641 3.17746L11.1501 3.649L11.7486 3.3298C12.3979 2.98159 13.1378 2.78571 13.9286 2.78571C15.0675 2.78571 16.1013 3.19196 16.9065 3.87026L17.3273 4.2221L17.8387 4.02623C18.361 3.82673 18.916 3.71429 19.5 3.71429C22.0753 3.71429 24.1429 5.78181 24.1429 8.35714C24.1429 10.9325 22.0753 13 19.5 13C19.0901 13 18.6875 12.9383 18.2958 12.8368L17.5739 12.6409L17.233 13.3047C16.7796 14.1716 15.8982 14.7592 14.8571 14.7592C14.8499 14.7592 14.7628 14.7483 14.5778 14.7266L14.0882 14.6794L13.769 15.0566C12.9166 16.0686 11.647 16.7143 10.2143 16.7143C8.82868 16.7143 7.59905 16.1085 6.74665 15.1473L6.45285 14.8172L6.01395 14.839C5.81445 14.8463 5.7673 14.8571 5.86161 14.8571C3.63811 14.8571 1.85714 13.0762 1.85714 10.8527C1.85714 9.91685 2.19085 9.06808 2.74219 8.37528L3.02511 8.02344L2.91629 7.58454C2.83287 7.22545 2.78571 6.86635 2.78571 6.5C2.78571 3.92467 4.85324 1.85714 7.42857 1.85714Z" fill="white"/>
</svg>
